<svg xmlns="http://www.w3.org/2000/svg" viewBox="0 0 145.67 120.52"><defs><style>.cls-1{fill:#ede240;}.cls-2{fill:#fff;}.cls-3{font-size:16.7px;fill:#4ba82c;font-family:Noteworthy-Bold, Noteworthy;font-weight:700;}.cls-4{letter-spacing:-0.05em;}.cls-5{letter-spacing:-0.05em;}.cls-6{letter-spacing:-0.04em;}.cls-7{letter-spacing:-0.05em;}.cls-8{letter-spacing:-0.08em;}.cls-9{letter-spacing:-0.02em;}.cls-10{letter-spacing:0.03em;}.cls-11{letter-spacing:-0.01em;}.cls-12{letter-spacing:0.03em;}.cls-13{letter-spacing:0.02em;}.cls-14{letter-spacing:-0.03em;}.cls-15{letter-spacing:-0.01em;}.cls-16{letter-spacing:0.01em;}.cls-17{letter-spacing:0em;}.cls-18{letter-spacing:-0.02em;}.cls-19{fill:#5bb03f;}</style></defs><title>Fichier 1</title><g id="Calque_2" data-name="Calque 2"><g id="Calque_1-2" data-name="Calque 1"><path class="cls-1" d="M121.36,110.85a22.88,22.88,0,0,0-.1-7.56,54.21,54.21,0,0,0-1.82-7.16,9.74,9.74,0,0,0-.83-1.58c-.23-.45-.42-.93-.61-1.36a4.47,4.47,0,0,1,2.57-1.82c3.16-1.16,6.34-2.25,9.47-3.5A32,32,0,0,0,142,80.13a11.8,11.8,0,0,0,2.42-4.7c.31-1.61.59-3.23.92-4.83a29.4,29.4,0,0,0,.33-6.47,14,14,0,0,0-.63-4.18c-.54-1.69-.67-3.52-1-5.27-.67-3.14-1.16-6.34-2.12-9.39a170.83,170.83,0,0,0-6.48-17.19c-1.63-3.7-3.68-7.16-5.45-10.78A19.65,19.65,0,0,0,125,11a16.36,16.36,0,0,0-7-3.31,40.29,40.29,0,0,0-12.49-.59c-4,.31-8,.8-12,1.22a19.26,19.26,0,0,0-2,.35C87,9.62,82.66,10.6,78.27,11.5a160.85,160.85,0,0,0-16.92,4.37c-3.2,1-6.34,2.22-9.5,3.36-3.72,1.35-7.45,2.7-11.14,4.12s-7.37,2.92-11,4.4c-1.25.5-2.47,1.06-3.71,1.58a30.69,30.69,0,0,0-8.14,5.08,12.88,12.88,0,0,0-4.43,9.22,59.81,59.81,0,0,0,.44,11.86,91.18,91.18,0,0,0,1.85,11.06,143.46,143.46,0,0,0,5.42,17.33c1,2.73,2.07,5.45,3.13,8.17a55.68,55.68,0,0,0,5.27,10.38,19,19,0,0,0,8.19,7.09,19.19,19.19,0,0,0,6,1.67,36.55,36.55,0,0,0,10.49-.4C58.16,110,62,109,66,108c6.46-1.65,12.74-3.83,19.14-5.65L98,98.63a12.41,12.41,0,0,1,9.55.93,28.12,28.12,0,0,1,9.75,8.42,10.81,10.81,0,0,1,1.8,3.84c.23.94.51,1.87.76,2.8A7.69,7.69,0,0,0,121.36,110.85Z"/><path class="cls-2" d="M74.6,19.64c2.27-.38,4.55-.74,6.82-1.13,4.63-.79,9.25-1.73,13.91-2.35a48.74,48.74,0,0,1,11.83-.4c2.07.23,4.17.28,6.23.63A18,18,0,0,1,124,21.78c1.31,1.42,2.53,2.93,3.81,4.39.37.42.67,1.06,1.53.72a7.45,7.45,0,0,0-.52-1.39,27,27,0,0,0-7.11-7.69,24.16,24.16,0,0,0-9.46-3.92c-5.78-1.19-11.58-.87-17.38-.08-1.63.22-3.25.47-4.87.78s-3.37.68-5,1.09A54.36,54.36,0,0,0,76.75,18a8.91,8.91,0,0,0-2.32,1.22Z"/><path class="cls-2" d="M48,105.47c-.29-.5-.81-.26-1.21-.35-2-.46-4.09-.82-6.1-1.33A8,8,0,0,1,36,100.67c-.64-.9-1.35-1.76-2.06-2.62a2.21,2.21,0,0,0-.7-.5.63.63,0,0,0-.82.5,3,3,0,0,0,.19,1.07c1.51,3.21,3.5,5.84,7.33,6.5A21.21,21.21,0,0,0,48,105.47Z"/><path class="cls-1" d="M15.64,31.11S8.5,38.67,10.49,45.94C10.49,45.94,5.63,37.05,15.64,31.11Z"/><polygon class="cls-1" points="12.3 70.86 19.88 96.81 9.11 72.03 12.3 70.86"/><path class="cls-1" d="M128.21,8.91s-7-10.24-26.54-4.89C101.67,4,120.22-7.71,128.21,8.91Z"/><path class="cls-1" d="M124.45,98.63s4.57,8.32-.68,21C123.77,119.68,133.9,109.9,124.45,98.63Z"/><text class="cls-3" transform="translate(4.31 59.75) rotate(-16.05)"><tspan class="cls-4">V</tspan><tspan class="cls-5" x="10.58" y="0">o</tspan><tspan x="18.39" y="0">t</tspan><tspan class="cls-6" x="24.59" y="0">r</tspan><tspan x="30.6" y="0">e spo</tspan><tspan class="cls-7" x="67.4" y="0">r</tspan><tspan class="cls-8" x="73.26" y="0">t</tspan><tspan x="78.1" y="0" xml:space="preserve">,  </tspan><tspan x="0" y="20.04" xml:space="preserve">    Où </tspan><tspan class="cls-9" x="38.65" y="20.04">v</tspan><tspan class="cls-10" x="46.46" y="20.04">o</tspan><tspan class="cls-11" x="55.56" y="20.04">u</tspan><tspan x="63.05" y="20.04">s </tspan><tspan class="cls-9" x="74.76" y="20.04">v</tspan><tspan class="cls-12" x="82.57" y="20.04">o</tspan><tspan class="cls-13" x="91.67" y="20.04">u</tspan><tspan x="99.66" y="20.04">l</tspan><tspan class="cls-14" x="103.02" y="20.04">e</tspan><tspan x="110.46" y="20.04">z, </tspan><tspan x="0" y="40.08">q</tspan><tspan class="cls-15" x="8.35" y="40.08">u</tspan><tspan class="cls-16" x="15.84" y="40.08">a</tspan><tspan class="cls-17" x="24.98" y="40.08">nd </tspan><tspan class="cls-18" x="45.79" y="40.08">v</tspan><tspan class="cls-10" x="53.6" y="40.08">o</tspan><tspan class="cls-15" x="62.7" y="40.08">u</tspan><tspan x="70.19" y="40.08">s </tspan><tspan class="cls-18" x="81.9" y="40.08">v</tspan><tspan class="cls-10" x="89.71" y="40.08">o</tspan><tspan class="cls-13" x="98.81" y="40.08">u</tspan><tspan x="106.8" y="40.08">l</tspan><tspan class="cls-14" x="110.16" y="40.08">e</tspan><tspan x="117.59" y="40.08">z.</tspan></text><path class="cls-19" d="M50,120.23c-.1.11.3.24.36.29C50.38,120.28,49.9,120.19,50,120.23Z"/><path class="cls-19" d="M50.3,117.71l.12.13a5,5,0,0,1-.16-.53A3.19,3.19,0,0,0,50.3,117.71Z"/><path class="cls-19" d="M51.63,115.85c-.7-.25-.39.74-.83.93l-.17,0,.37.47C51.19,116.77,51.26,116,51.63,115.85Z"/><path class="cls-19" d="M53.57,115.88c-.26-.12,0-.34-.25.15h.09A.85.85,0,0,1,53.57,115.88Z"/><path class="cls-19" d="M53.41,116c-.14.19.28,0,0,0Z"/><path class="cls-19" d="M54,115.13l0,.39c.17.06.37-.12.4,0C54.49,115.24,54.33,115.17,54,115.13Z"/><path class="cls-19" d="M53.81,114.57l0,.19C53.85,114.78,53.9,114.76,53.81,114.57Z"/><path class="cls-19" d="M53.72,115.16l.06-.4c-.12,0-.29-.19,0,.17C53.6,114.77,53.7,115,53.72,115.16Z"/><path class="cls-19" d="M53.51,115.23c-.23,0-.46.14-.44-.26C52.75,115.49,53.19,115.74,53.51,115.23Z"/><path class="cls-19" d="M51.11,115.31l-.31.07.07.32C50.83,115.54,51.29,115.43,51.11,115.31Z"/><path class="cls-19" d="M55.57,114c-.09-.12-.36-.21-.52-.33l0,.28C55.16,113.91,55.4,113.83,55.57,114Z"/><path class="cls-19" d="M55,113.64l.07-.42C54.87,113.41,54.91,113.54,55,113.64Z"/><polygon class="cls-19" points="53.26 113.99 53.28 114.79 53.33 113.91 53.26 113.99"/><polygon class="cls-19" points="56.53 113.08 56.63 113.47 56.52 112.84 56.53 113.08"/><path class="cls-19" d="M57.11,112.43c.09.31.47.23.48.47a1.57,1.57,0,0,0,.1-.81C57.63,112.3,57.47,112.42,57.11,112.43Z"/><path class="cls-19" d="M57.73,111.64a1.85,1.85,0,0,0,0,.44A1,1,0,0,0,57.73,111.64Z"/><path class="cls-19" d="M55.6,112.86a.67.67,0,0,0,.5.12l-.4-.21Z"/><path class="cls-19" d="M55.69,112.76h0l.23-.19Z"/><path class="cls-19" d="M55.57,112.88l0,0S55.54,112.83,55.57,112.88Z"/><path class="cls-19" d="M54.15,113.56c0-.32.1-.8-.47-.76C53.79,113.12,54.1,113.08,54.15,113.56Z"/><path class="cls-19" d="M55.07,112.62l-.34.19c.09.07.25.14.26.3Z"/><polygon class="cls-19" points="55.11 112.39 55.07 112.62 55.2 112.55 55.11 112.39"/><path class="cls-19" d="M57,111.76a.68.68,0,0,1,.26-.52,1.44,1.44,0,0,0-.57.33C56.73,111.69,56.82,111.93,57,111.76Z"/><path class="cls-19" d="M56.33,112.22v0S56.27,112.17,56.33,112.22Z"/><path class="cls-19" d="M58.76,110l-.07,0,0,.06Z"/><path class="cls-19" d="M56.58,111.53c-.17.05-.17.19-.15.36a1.24,1.24,0,0,1,.23-.32C56.63,111.51,56.6,111.48,56.58,111.53Z"/><path class="cls-19" d="M58,111.14a1.77,1.77,0,0,0-.37,0C57.8,111.19,58.07,111.25,58,111.14Z"/><path class="cls-19" d="M56.46,112.22a.14.14,0,0,1,0,0C56.55,112.29,56.52,112.26,56.46,112.22Z"/><path class="cls-19" d="M56.46,112.22a1.18,1.18,0,0,0,0-.34.89.89,0,0,0-.1.29Z"/><path class="cls-19" d="M57.52,107.44c.22.33.11.9-.45.81-.1.47.92,1.32,1.62,1.68-.1-.14-.2-.26-.06-.69-.23-.09-1,.14-.94-.34.26-.48.41-.16.73-.15-.47-.25,0-1-.48-1.48l-.19.49C57.66,107.68,57.68,107.44,57.52,107.44Z"/><path class="cls-19" d="M58.11,110.35l-.09.14a1.4,1.4,0,0,1,.75.08.69.69,0,0,0,0-.57l-.62.44Z"/><path class="cls-19" d="M57.5,110.93c-.19-.4,0-.78-.5-1-.33.32,0,.48-.1.79.49-.55,0,.32.56.16a1.17,1.17,0,0,1-.23.34,2,2,0,0,1,.42-.09h0c-.06,0-.09,0,0,0s0,0,0,0a.81.81,0,0,1-.08-.14c.22-.07.1.06.08.14l0,.05h0l.41-.64A1.42,1.42,0,0,0,57.5,110.93Z"/><path class="cls-19" d="M53.3,111.88a.19.19,0,0,1,.09.05C53.39,111.86,53.37,111.82,53.3,111.88Z"/><path class="cls-19" d="M53.71,111.85c0,.08.09.23-.07.32s-.15-.15-.25-.24c0,.16,0,.47.34.39v-.08a1.49,1.49,0,0,1,1,.09A3.67,3.67,0,0,0,53.71,111.85Z"/><path class="cls-19" d="M55.55,111.25l.3-.58-.48-.06.16.15C55.22,110.94,55.46,111.09,55.55,111.25Z"/><polygon class="cls-19" points="58.95 110.09 59.17 110.5 59.03 109.78 58.95 110.09"/><polygon class="cls-19" points="59.51 109.55 59.73 109.88 59.75 109.56 59.51 109.55"/><path class="cls-19" d="M98.6,84.83l.14-.17A.55.55,0,0,0,98.6,84.83Z"/><path class="cls-19" d="M97.31,85.27l0,.19C97.37,85.34,97.37,85.26,97.31,85.27Z"/><path class="cls-19" d="M76.29,99.33c.4.22.92.6.7.22l-.26-.35A.42.42,0,0,1,76.29,99.33Z"/><path class="cls-19" d="M87.78,91.37l-.12-.09v.45Z"/><path class="cls-19" d="M87.28,89.63l.44.13A1.21,1.21,0,0,0,87.28,89.63Z"/><path class="cls-19" d="M105.46,82l.07-.49C105.21,81.63,105.42,81.79,105.46,82Z"/><path class="cls-19" d="M66.13,104.79a1.24,1.24,0,0,0,.62-.07C66.39,104.65,66,104.45,66.13,104.79Z"/><path class="cls-19" d="M99.64,89.35a.31.31,0,0,0,.06-.3C99.62,89.16,99.58,89.26,99.64,89.35Z"/><path class="cls-19" d="M67.32,104.38l-.16,0a1,1,0,0,1-.41.37C67,104.77,67.28,104.75,67.32,104.38Z"/><path class="cls-19" d="M131.33,74.83l.07,0C131.39,74.8,131.36,74.81,131.33,74.83Z"/><path class="cls-19" d="M139.92,77.22a1.33,1.33,0,0,1-.3.11C139.68,77.34,139.77,77.31,139.92,77.22Z"/><path class="cls-19" d="M62.18,107.81c-.12.12,0,.05,0,0Z"/><path class="cls-19" d="M60.52,106.91a.36.36,0,0,0-.07-.21A.46.46,0,0,1,60.52,106.91Z"/><path class="cls-19" d="M67.41,101.17h0C67.34,101.12,67.35,101.12,67.41,101.17Z"/><path class="cls-19" d="M61.87,107.8a.76.76,0,0,0,.25,0A.79.79,0,0,0,61.87,107.8Z"/><path class="cls-19" d="M62,107.95l-.14.05C61.9,108.07,61.94,108.1,62,107.95Z"/><path class="cls-19" d="M62.36,107.65a.64.64,0,0,1-.24.12s.07,0,.07,0Z"/><path class="cls-19" d="M117.8,79.76l0,0C118,79.56,117.9,79.61,117.8,79.76Z"/><path class="cls-19" d="M78.45,93.31v0h0Z"/><path class="cls-19" d="M78.89,92.76c0,.6-.19.6-.42.58l.71,1.05Z"/><path class="cls-19" d="M101.62,83.65l-.55-.22c.3-.78.74-.7.16-1.08.38,1.31-1.59.7-1.2,2l-.37-.17c.08,0,.07-.09.15-.11-.75-.43-.07,1.07-.83,1.12-.28,0-.51-.14-.4-.35l-.42.51a.12.12,0,1,1,0-.24l-.78.4v0a4.6,4.6,0,0,1-.28.83c-.27-.11.05-.17-.06-.31l-.34.47c-.3-.26,0-.72.28-.79-.88-1.12-.26.46-1.44,0l.37-.32c-.54-.62-.78-.24-1.43-.52.2.19,1.39.79,1,1.28-.17,0-.37,0-.54.33-.17-.45-.39-.25-.7-.1l-.2-.61c-.28.31-.14.6-.25.95-.41.09-.66-.35-.9-.7-.66.14.71.58,0,1-.6,0-.87.35-1.35.94-.44-.07-.08-.39-.27-.51l-.14.6c-.08,0-.11-.14-.13-.22-.2.29.21.6-.15.93.14.7-1.24-.62-1.47.33-.2-.12-.08-.39-.21-.6a4.18,4.18,0,0,0-.8,1.49l-.66-.19c.55.3.29,1,.06,1.61a5.88,5.88,0,0,0,.51.37l-.52.58c-.12-.07-.14-.3-.13-.59a1.94,1.94,0,0,0-.06.19c-.32-.13-.34-.52-.31-.91l.38.27a2.56,2.56,0,0,0-.17-1.22.46.46,0,0,1-.15.25.42.42,0,0,0,0-.26c0-.05-.06.1-.11.3l-.42-.6.07.28-1-.06c-.34.92-.46,2.12-1.3,2.8,0-.58-.28-.81-.51-1.38.52.49.64-.57,1.19-.66-.29,0-.34-.25-.32-.37l-.66.93c-.18-.48-.34-.27-.65-.36.57.85-.4.9-.65,1.33-.16-.3-.21-.65.27-.76-.79-.48-.17,1.34-.9,1,.1-.06.18,0,.16-.21-.13.38-.84.44-.81.11l.1-.05c-.76.21-2.17,1-1.93,1.79a10.2,10.2,0,0,1-.36-1.15l-.07,3.17c-.19-.71-1.35-2.1-.94-2.74a.65.65,0,0,0-.72.37c.16,0,.73.82.6,1-.77-.53-.48-.25-1.31-.63.24.06.54,1.19.25,1.28,0-.18-.51-1-.46-1.17l-.19,1.34c.08-.26-.38-.87-.67-1.09.17.16-.59.26-.73.45l.4.1c-.84.21-.06,1.78-.83,2.09,0-.25-.41-1.4-.86-1.33.08.61.47,2.87,0,3.6l-.27-.23-.33.59a19.08,19.08,0,0,1,.13-3.89c-.4-.09-.25-.31-.66-.06-.29-.2,0-.54.14-.62l-1.08.33c.35.58-.45,1-.15,1.47l.75-1.17c.35.58.25,2-.49,2.26-.3-.15-.42-1.13-.54-1.32,0,.25-.46.73-.6.62l.13-.47c-.51,0-.22,1.1-1,.8-.18,0-.89-.5-.73-.13a9.62,9.62,0,0,1,1.91,3.19,6.25,6.25,0,0,1-1.53-.43c-.55-.38-.3-1.47-.77-1.8a1,1,0,0,1,0,.54c-.24,0-.21-.54-.53-.26.27.63-.76.36.11.6-.26.36-.44.09-.84.34a2.08,2.08,0,0,1,.12,1.87,1.09,1.09,0,0,0-.35-.38c-.73.37-1.27.33-1.93.72-.15-.1-.57-.08-.59-.42,0,.16,0,.41-.19.55-.7-.26.41-.35-.27-.77.18.35-.24.78-.4,1.17.41.46.73-.3.89-.69a2.49,2.49,0,0,1-.06,2.51c-.41.52-.52-.31-.54-.15-1.07.53,0,1.79-1.17,1.81-.62-.23-.61-.88-.9-1.15.32-.45.85-.15,1.12-.36l-.5,0c0-.24.25-.54.49-.52-.54-.22-1.73,1-2.74,1.18,0,.25-.15.56.08.66l.19-.23c.46.2-.09.81.32.76-.14.48-.2,1.12-.77,1.24l-.45-.43c.12.14.5.09.51-.16,0,.35-1.16-.17-.88.62l.56.12c-.13.48-.11,1.27-.61,1.4.54.35,0-.12.74.25-.77-.53,1-.68.06-1.15.77.46.69-.07,1.46.23-.13-.16-.35-.22,0-.37a.9.9,0,0,1,0-.2h0s0,0,0,0a.68.68,0,0,1-.34-.13c-.11-.49.4-.86.44-1.18.25-.05,0,.25.28.35l.06-.47c.28.35.94.27.63.79l.43-.26a.79.79,0,0,0,.88-.39c.25,0,.22-.74.24-.34l.5-.67.07.09c.66-.39,1-1.47,2.14-1.24a1.25,1.25,0,0,1,.76-.61l.27.29c.22-.29,1-.19,1-.6.84.73,1.53-.59,2.14-.71l-.23-.46a3,3,0,0,0,1-.91l-.24-.38c.21-.55,1.15-.24,1.74-.6,0,.17-.14.21-.3.18,1.2.52,1.22-1.45,2.22-1.14a.3.3,0,0,1,.41-.2.07.07,0,0,0,0,0l.07,0,.34.1a1,1,0,0,0-.3-.12,1.58,1.58,0,0,0,.44-.41l.29.39,0,0c.27.07.05-.28-.21-.55a1.14,1.14,0,0,0,.13-.38c.49.63.4-.48,1,.17,0-.43.84-.74.59-1.56.05.1.13.12,0,.17.26,0,.52,0,.61-.34l.35.51.13-1c.45.21.66.35.57.91.4-1,.45-.5.75-1.42l.13.37c.21-.11.33-.75.59-.5.78.47,2.4-1,3.91-.83-.69-1,.78.24.47-.61.18.22.41.29.3.6.52-.52,1.11,0,1.25-.88.18.23,0,.43.15.55,0-.08.11-.31.24-.18s0,.25-.06.41c.62-.32.37-1.12.11-1.88.47.22.62.1.66-.48.21.2.51.37.14.62.24-.06,1.53-.2,1.31-.8.13.12.33-.08.37-.18a4.4,4.4,0,0,0,1.07-.39l-.18,0c-.08-.8.35-.33.73-.57l0,.08c1.13.16.31-.4,1.45-.16l-.22-.43c-.28-1,1,.26,1.42-.31l-.29-.18c.17-.44,1.31,1,1.64,1,.09.06-.05.17-.12.27,1,.28-.12-.63.4-1,.22.28.16.86.57.78.29.19.74-1.44,1.49-1-.2-.2-.41-.41-.21-.69.38-.24,1.44.53,1.53-.38a.34.34,0,0,1,.14.17c.24-.32.9-.69.94-1.18.84,1.46,1.69-1.44,2.18,0l.94-.41,0,.16c.65-.12.75-.53.85-1,.18.05.12.22.13.3,1,0,1.07-.1,1.59-1.08l.23.44c.12-.34,1.55.3,2.26-.53a.38.38,0,0,1,0,.24c.83-.87,2.81.54,2.64-1.29l.53-.63c-.9.13-.11-.79-.55-1,.31-.21,1,.25.65.47l-.09-.07c.13.95,1.17,0,1.34.61,1.68-.57,3.48-.57,5.08-1l-.39-.65.57-.12c.19.12.36.49,0,.58.32.34.57-.53.53-.69.86.06-.06.91.18.85l.31-.15-.1-.06c.18-.36.11-.67.6-.78.34.05.28.39.41.38s.06.06.19,0l.72-.14-.44-.47c.23-.36.67-.16.16-.7.75.83,2.72-.4,3.09-.17a1.64,1.64,0,0,1,1.3-.74c-.16-.08-.42-.68.07-.73.19,1.34,1,.33,1.62,1.16-.5-.53,1.27-.51.51-1.24.41,0,.15.48.53.7.78-.75,2.1-.21,3.19-.68,0-.17-.28-.39-.11-.7l.82.69c.2-.14,0-1,.51-.55-.09-.13-.24-.32-.1-.42,2.43.26,4.39-1.83,7-.8-.38-.26-.19-.34,0-.41-.17,0-.1-.42-.18-.65l1.1.42c0-.69,1-.28,1-.91l-.27.18c.24-.82-.93-1.49-1.09-2.44-.26.93-1.48-.95-1.94.41-.21-.15.07-.33-.07-.53-.09.44-.3.58-.76.5l0-.11c-1.16.38-1.76.11-3.15.18l.21.44a.9.9,0,0,1-.56-.2c-.15.78.81-.16.7.68-.61-.84-2,.49-2.53-.51-.44.11.26.5-.17.6l-.19-.26,0,.4c-.3,0-.54-.31-.61-.55.08,0,.18-.12.25-.16-.46-.25-1,.39-1.17.31l.47.07c-1.12.58-2.68.58-3.67,1.48l.15.19c-.77.64-.77,0-1.68.4l0-.06a.89.89,0,0,1-.63.49c.17-.32-.59-.36-.35-.73-.83.69-.38.47-.78,1.44l-.24-.32c-.12.38-.09.56-.55.78.31-.42-.46-.46-.13-1-1.23-.5-1.27,1.21-2.05.2-.18,1.12,1,.3.83.58.31.26-.17.85-.51.84s-.91-1.11-1.71-.86c.08,0,.07-.09.15-.11-.37-.16-.49.51-1,.21,0,.65-.49.11-.33.88l.69-.39c-.36.32-.49,1.33-1.31,1.1a1.43,1.43,0,0,1,.26-.59c-.27-.16-.34.26-.62.1-.16-.78.85-.43,1.13-1.14-.31-.26-.69.8-.7-.09,0,1.14-.83.1-1.14,1.06l-.1-.47c-.07.1-.18.37-.34.4l.11-.68c-.29.63-1-.19-1.33.21.88-.28.36.49.84.71-.91.93-1-1-2.14-.41.15-.11.7.08.51.37a1.51,1.51,0,0,1-.84-.3c-.78.34.27.43,0,.81-.44-.47-.33.35-.63.63l-.14-.46c-1,0,.05,1-.89.93l.15-.75-.38.3-.07-.55c-.35.53-.53.48-1,.48.21.29.2.85-.2,1-.36-.18,0-.49-.54-.24,0-.33.07-.74.45-.39,0-.16,0-.33,0-.49-.4-.22-.77.17-1,.24a.4.4,0,0,1,.26,0l-.63.9c-.19-.13-.13-.3-.07-.47-.15.1-.2.35-.44.47-.06-.39-.2-.77.1-1.06l-.66.67c-.11-.15-.55-.31-.49-.49-.52-.08-.85,1.08-1.53,1a.39.39,0,0,1-.15.27c-.58.1-1.22-.2-1.7.53l-.59-.54c-.46.32.78.67,0,1.21-.53.41-.42-.49-.69-.61-.18.44-.47,1.3-1.2.95C101.3,83.71,101.47,83.76,101.62,83.65Zm-6.14,2.51c.09-.14.22-.52.41-.28C95.94,86.44,95.75,86.23,95.49,86.16Zm-9,4.72c0-.19.19-.17.42-.06A.42.42,0,0,1,86.53,90.87Zm-23,15.57v0C63.82,106.42,63.7,106.42,63.49,106.45Zm-.6.14a.18.18,0,0,0,.09.18c0-.12.07-.2.21-.25C63.09,106.44,63,106.41,62.89,106.59Zm57.6-24.24-.14-.09C120.56,82.06,120.52,82.2,120.49,82.35Z"/><path class="cls-19" d="M87.34,89.84a.83.83,0,0,1,.15.22A.18.18,0,0,0,87.34,89.84Z"/><path class="cls-19" d="M105.45,82.09h0a.35.35,0,0,0,0-.09Z"/><path class="cls-19" d="M68.54,98.36a.56.56,0,0,1,.33.1C68.82,98.35,68.72,98.29,68.54,98.36Z"/><path class="cls-19" d="M60.92,109l.22-.32c-.13.12-.24.08-.36.07C60.85,108.85,61,108.94,60.92,109Z"/><path class="cls-19" d="M56.55,108.66c0,.08-.09.08-.09.16l.16.16C56.79,108.82,56.8,108.57,56.55,108.66Z"/><path class="cls-19" d="M59.68,107.93c-.27-.31-.37-.06-.54.16l0,0C59.47,108.56,59.57,108.25,59.68,107.93Z"/><path class="cls-19" d="M59.1,108.14a.51.51,0,0,1-.19.15C59,108.48,59,108.27,59.1,108.14Z"/><path class="cls-19" d="M62.44,107.21c-.16,0,.23.47.08.37C62.7,108.08,62.84,106.62,62.44,107.21Z"/><polygon class="cls-19" points="58.7 106.99 59.08 107.34 58.96 106.93 58.7 106.99"/><path class="cls-19" d="M60.6,106.05l-.42.14a.18.18,0,0,1,0,.21C60.41,106.26,60.69,106.17,60.6,106.05Z"/><path class="cls-19" d="M60.19,106.4a.41.41,0,0,0-.22.27A.89.89,0,0,0,60.19,106.4Z"/><polygon class="cls-19" points="59.08 106.53 59.24 106.54 59.51 106.39 59.08 106.53"/><path class="cls-19" d="M64.4,103.6l.32-.36c-.05-.17-.21-.19-.33,0S64.26,103.5,64.4,103.6Z"/><path class="cls-19" d="M62.49,103.22c.16,0,.23.11.38.21l-.33-.53Z"/><path class="cls-19" d="M63.55,102.35c-.06-.18.32-.77-.17-.43C63.43,102.09,63.12,102.47,63.55,102.35Z"/><polygon class="cls-19" points="70 99.5 69.9 99.56 70.4 100.45 70 99.5"/><path class="cls-19" d="M74.38,94.49c-.61,0,.16.62-.43.56,0,.27.48,0,.45.29C74.59,95,74.81,95,74.38,94.49Z"/><path class="cls-19" d="M74.4,95.34a1.18,1.18,0,0,0-.09.21A.55.55,0,0,0,74.4,95.34Z"/><polygon class="cls-19" points="141.28 77.46 141.67 77.59 141.38 77.31 141.28 77.46"/><path class="cls-19" d="M141.77,76.58l.22.62.07-.62C142,76.62,141.86,76.71,141.77,76.58Z"/><path class="cls-19" d="M94.11,85.27l0,.16c.11.14.19.12.36.09Z"/><polygon class="cls-19" points="98.81 84.08 98.72 84.1 99.07 84.6 98.81 84.08"/><path class="cls-19" d="M102.39,82.05c-.16,0-.31.22-.47.25C102.22,82.08,102.67,82.73,102.39,82.05Z"/></g></g></svg>