<svg xmlns="http://www.w3.org/2000/svg" viewBox="0 0 145.65 71.88"><defs><style>.cls-1{fill:#ede240;}.cls-2{font-size:18.41px;font-family:Noteworthy-Bold, Noteworthy;font-weight:700;}.cls-13,.cls-2{fill:#4ba82c;}.cls-3{letter-spacing:-0.16em;}.cls-4{letter-spacing:-0.05em;}.cls-5{letter-spacing:0.03em;}.cls-6{letter-spacing:-0.03em;}.cls-7{letter-spacing:-0.02em;}.cls-8{letter-spacing:-0.05em;}.cls-9{letter-spacing:0em;}.cls-10{letter-spacing:-0.04em;}.cls-11{letter-spacing:0.03em;}.cls-12{letter-spacing:0.02em;}.cls-13{font-size:31.85px;font-family:ArialRoundedMTBold, Arial Rounded MT Bold;}.cls-14{letter-spacing:-0.02em;}</style></defs><title>Fichier 1</title><g id="Calque_2" data-name="Calque 2"><g id="Calque_1-2" data-name="Calque 1"><path class="cls-1" d="M47.4,58c.42-.36,6.22-5.16,7.05-5.81,1.31-1,2.66-2,4-3a1.5,1.5,0,0,0,.68-1.44,13.79,13.79,0,0,0-.37-2c-.56-2-1.24-4.06-1.72-6.12A29.2,29.2,0,0,1,56.31,32a10.71,10.71,0,0,0,0-1.5,17.31,17.31,0,0,1,1.38-8c.18-.47.43-.92.56-1.4,1-3.69,3.42-6.48,6.17-9a23.43,23.43,0,0,1,8.36-4.79,56.58,56.58,0,0,1,5.77-1.69,29.13,29.13,0,0,1,3.8-.55c1.61-.15,3.22-.27,4.83-.4a22.07,22.07,0,0,1,7,.49,38.08,38.08,0,0,1,8.3,3,33.54,33.54,0,0,1,6.87,5,45.32,45.32,0,0,1,9.3,12.16,23.77,23.77,0,0,1,1.4,3.4c.46,1.25.88,2.52,1.3,3.79a8.93,8.93,0,0,1,.37,1.46,34,34,0,0,1,.71,5.62,1.42,1.42,0,0,0,0,.33c.6,2.68.1,5.32-.26,8-.16,1.16-.42,2.3-.69,3.44a4.69,4.69,0,0,1-.55,1.22,41.24,41.24,0,0,1-6.83,9A49.85,49.85,0,0,1,110,65a16.16,16.16,0,0,1-1.87,1.1,42.85,42.85,0,0,1-9,4A43.61,43.61,0,0,1,88,71.88a6.11,6.11,0,0,1-2.75-.59c-1.43-.62-2.81-1.37-4.23-2a9.71,9.71,0,0,1-2.51-1.64,21,21,0,0,0-2.95-2.19A40.89,40.89,0,0,1,68.74,60a37.28,37.28,0,0,0-3-2.43,2.45,2.45,0,0,0-2.06-.46,40.64,40.64,0,0,1-7.33.43c-1.11,0-2.22.17-3.33.25q-2.33.17-4.67.31A6.22,6.22,0,0,1,47.4,58Z"/><path class="cls-1" d="M125.95,42.48s4.05-10.06-6.68-20.23C119.27,22.25,133.07,30.63,125.95,42.48Z"/><polygon class="cls-1" points="40.89 59.04 51.03 49.43 53.81 49.61 40.89 59.04"/><path class="cls-1" d="M53.25,35.27S48.1,21.79,60.3,12.2C60.3,12.2,43.44,20.21,53.25,35.27Z"/><text class="cls-2" transform="matrix(1, -0.1, 0.1, 1, 1.67, 30.86)"><tspan class="cls-3">T</tspan><tspan class="cls-4" x="9.11" y="0">r</tspan><tspan class="cls-5" x="15.56" y="0">o</tspan><tspan x="25.59" y="0">u</tspan><tspan class="cls-6" x="34.04" y="0">ve</tspan><tspan x="50.65" y="0">z </tspan><tspan class="cls-7" x="63.33" y="0">v</tspan><tspan class="cls-8" x="71.94" y="0">o</tspan><tspan class="cls-9" x="80.54" y="0">t</tspan><tspan class="cls-10" x="87.38" y="0">r</tspan><tspan x="94.01" y="0">e cl</tspan><tspan class="cls-11" x="119.53" y="0">u</tspan><tspan x="128.46" y="0">b </tspan><tspan x="0" y="22.09">en </tspan><tspan class="cls-12" x="22.39" y="22.09">u</tspan><tspan x="31.2" y="22.09">n</tspan></text><text class="cls-13" transform="translate(57.66 54.35) rotate(-4.46)"><tspan class="cls-14">c</tspan><tspan x="18.13" y="0">lic</tspan></text></g></g></svg>