<svg xmlns="http://www.w3.org/2000/svg" viewBox="0 0 457.83 108.94"><defs><style>.cls-1{fill:#006580;}.cls-2{fill:#f09700;}.cls-3{fill:#fff;}.cls-4{fill:#006690;}</style></defs><title>Fichier 2</title><g id="Calque_2" data-name="Calque 2"><g id="Calque_1-2" data-name="Calque 1"><path class="cls-1" d="M178.24,42.61a12.24,12.24,0,0,0-14.63-12,40.24,40.24,0,0,0-5.1-7.09A39.34,39.34,0,0,0,144,14c4.53-3.28,8.63-6.1,8.63-6.1-3.58-.8-12.77,2-17.89,3.81-.93-.13-1.88-.22-2.85-.29,2.47-3.91,10-11.43,10-11.43-11.29,2.66-17.51,7.85-20.72,11.68A39,39,0,0,0,97.09,23.51,38.69,38.69,0,0,0,92,30.75a12.24,12.24,0,1,0-5.83,23.77c0,.73,0,1.46,0,2.2q0,21,11,33,11.24,12,30.71,12,19.22,0,30.71-12,11.24-12.23,11.24-33,0-1.23,0-2.43A12.25,12.25,0,0,0,178.24,42.61Z"/><path class="cls-2" d="M199.51,14V31.07a18,18,0,0,1,6.84-6.63,19.14,19.14,0,0,1,9.41-2.14q10,0,16.47,8.34t6.42,21.6q0,13.26-6.42,21.6a17.93,17.93,0,0,1-8.66,5.88,34.06,34.06,0,0,1-10.8,1.82,35.88,35.88,0,0,1-19-5.35Q185,70.85,185,55.66v-49h7.27a7,7,0,0,1,5.13,2.14A7,7,0,0,1,199.51,14ZM223.89,51.6q0-7.7-3.21-12a10.21,10.21,0,0,0-8.77-4.49,10.8,10.8,0,0,0-9.2,4.28q-3.21,4.49-3.21,12.19,0,9,3,13a10.41,10.41,0,0,0,9,4.49,10.62,10.62,0,0,0,9.2-4.49Q223.89,60.15,223.89,51.6Z"/><path class="cls-2" d="M290.82,23.59V56.95q0,15.19-7.91,19.89a33.27,33.27,0,0,1-17.32,4.7,34.36,34.36,0,0,1-16.79-5.13q-7.59-4.7-7.59-19.46V23.59h15V59.94q0,5.13,3,7.48A10.76,10.76,0,0,0,266,69.78,11.21,11.21,0,0,0,273,67.43q3.1-2.35,3.1-7.48V30.86a7.18,7.18,0,0,1,2-5.13,6.91,6.91,0,0,1,5.24-2.14Z"/><path class="cls-2" d="M396.23,8.94a6.84,6.84,0,0,0-5.13-2.25h-7.27V31.07A20.34,20.34,0,0,0,377,24.44a19.94,19.94,0,0,0-9.41-2.14q-10.05,0-16.47,8.34a27.58,27.58,0,0,0-4,7.6V14a7.13,7.13,0,0,0-2.14-5,6.84,6.84,0,0,0-5.13-2.25h-7.27V31.07a20.34,20.34,0,0,0-6.84-6.63,19.94,19.94,0,0,0-9.41-2.14q-10.05,0-16.47,8.34-6.2,8.13-6.2,21.6,0,13.69,6.2,21.6a18,18,0,0,0,8.55,5.88,33.69,33.69,0,0,0,10.91,1.82,35.89,35.89,0,0,0,19-5.35c4.11-2.51,6.75-6.68,8-12.44a27.46,27.46,0,0,0,4.83,10.09,18,18,0,0,0,8.55,5.88,33.69,33.69,0,0,0,10.91,1.82,35.89,35.89,0,0,0,19-5.35q8.77-5.34,8.77-20.53V14A7.13,7.13,0,0,0,396.23,8.94ZM329.54,64.65a10.41,10.41,0,0,1-9,4.49,10.61,10.61,0,0,1-9.2-4.49q-3.21-4.49-3.21-13,0-7.7,3.21-12a10.2,10.2,0,0,1,8.77-4.49,11.17,11.17,0,0,1,9.2,4.28q3.21,4.49,3.21,12.19Q332.54,60.16,329.54,64.65Zm51.29,0a10.41,10.41,0,0,1-9,4.49,10.61,10.61,0,0,1-9.2-4.49q-3.21-4.49-3.21-13,0-7.7,3.21-12a10.2,10.2,0,0,1,8.77-4.49,11.17,11.17,0,0,1,9.2,4.28q3.21,4.49,3.21,12.19Q383.83,60.16,380.83,64.65Z"/><path class="cls-2" d="M410.85,104.58l-.06-13.38h4.06a10.27,10.27,0,0,0,6.74-2c1.64-1.36,2-5.92,1-8.91L402.66,23.59h16.47l11.55,40.2,10.05-35.07q1.28-5.13,6.84-5.13h10.26L436,88.38c-1.71,4.7-4.07,11.13-6.42,13.38-3.72,3.57-6.77,2.85-12.62,2.85C416.56,104.62,412.38,104.62,410.85,104.58Z"/><path class="cls-1" d="M78.57,53.65H43.24v5.68a8.86,8.86,0,0,0,8.89,8.89H62.51Q61,76.87,55.59,81.81q-5.44,4.7-13.84,4.69-11.37,0-17.54-7.66-6.43-7.9-6.42-21.74,0-13.59,6.18-21.74,6.17-7.66,16.8-7.66,8.15,0,13.09,3.46A19.08,19.08,0,0,1,58.8,36.6a8.11,8.11,0,0,0,7.66,4.69H78.32A32.58,32.58,0,0,0,66.21,20Q55.84,12.39,40,12.39q-18.29,0-29.4,12.35Q0,36.6,0,57.1,0,77.86,10.87,89.72q10.45,11.91,28.31,12.09h.6l.52,0q1.29,0,2.54-.12l1-.08Q58.67,100.23,68,90q10.55-12.1,10.55-32.61c0-1.18,0-2.33-.08-3.47Z"/><path class="cls-3" d="M162.86,52.87a19.45,19.45,0,0,0-35.08-11.59A19.45,19.45,0,1,0,108.47,72,19.47,19.47,0,1,0,147,72,19.46,19.46,0,0,0,162.86,52.87Z"/><circle class="cls-1" cx="125.82" cy="67.43" r="1.91"/><circle class="cls-1" cx="131.77" cy="67.43" r="1.91"/><path class="cls-3" d="M167.24,35.62A6.71,6.71,0,0,0,161.41,39,19.36,19.36,0,0,1,166.16,49a6.73,6.73,0,1,0,1.08-13.36Z"/><path class="cls-3" d="M82.33,46.26a6.71,6.71,0,0,0,6.37,2.26,19.36,19.36,0,0,1,4.55-10,6.73,6.73,0,1,0-10.92,7.77Z"/><path class="cls-1" d="M142.56,74.27s3.38,14.41-13.13,17.5C129.43,91.77,138.9,88.58,142.56,74.27Z"/><path class="cls-2" d="M187.71,99.11a6.27,6.27,0,0,0,3.16,1c1.74,0,2.56-.87,2.56-2s-.68-1.77-2.45-2.42c-2.37-.84-3.48-2.15-3.48-3.73,0-2.12,1.71-3.86,4.54-3.86a6.58,6.58,0,0,1,3.24.82l-.6,1.74a5.13,5.13,0,0,0-2.69-.76c-1.41,0-2.2.82-2.2,1.79s.79,1.58,2.5,2.23c2.28.87,3.45,2,3.45,4,0,2.31-1.8,3.94-4.92,3.94a7.5,7.5,0,0,1-3.7-.9Z"/><path class="cls-2" d="M198.81,92.69c0-1.69-.05-3-.11-4.3h2.15l.11,2.26H201a5.18,5.18,0,0,1,4.68-2.56c3.18,0,5.58,2.69,5.58,6.69,0,4.73-2.88,7.07-6,7.07a4.62,4.62,0,0,1-4.05-2.07h-.05v7.15h-2.37Zm2.37,3.51a5.33,5.33,0,0,0,.11,1,3.69,3.69,0,0,0,3.59,2.8c2.53,0,4-2.07,4-5.09,0-2.64-1.39-4.9-3.92-4.9a3.82,3.82,0,0,0-3.62,3,3.9,3.9,0,0,0-.16,1Z"/><path class="cls-2" d="M226.2,94.86c0,4.87-3.37,7-6.55,7-3.56,0-6.31-2.61-6.31-6.77,0-4.4,2.88-7,6.53-7S226.2,90.84,226.2,94.86ZM215.75,95c0,2.88,1.66,5.06,4,5.06s4-2.15,4-5.11c0-2.23-1.11-5.06-3.94-5.06S215.75,92.5,215.75,95Z"/><path class="cls-2" d="M229.22,92.5c0-1.55,0-2.88-.11-4.11h2.09l.08,2.58h.11A4,4,0,0,1,235,88.09a2.57,2.57,0,0,1,.68.08v2.26a3.7,3.7,0,0,0-.82-.08,3.36,3.36,0,0,0-3.21,3.07,6.65,6.65,0,0,0-.11,1.11v7h-2.37Z"/><path class="cls-2" d="M241.65,84.61v3.78h3.43v1.82h-3.43v7.1c0,1.63.46,2.56,1.79,2.56a5.32,5.32,0,0,0,1.39-.16l.11,1.79a5.82,5.82,0,0,1-2.12.33,3.32,3.32,0,0,1-2.58-1,4.88,4.88,0,0,1-.92-3.43V90.21h-2V88.39h2V85.24Z"/><path class="cls-2" d="M253,100.14a1.61,1.61,0,0,1,1.63-1.71,1.72,1.72,0,1,1-1.63,1.71Z"/><path class="cls-2" d="M264.61,99.11a6.27,6.27,0,0,0,3.16,1c1.74,0,2.56-.87,2.56-2s-.68-1.77-2.45-2.42c-2.37-.84-3.48-2.15-3.48-3.73,0-2.12,1.71-3.86,4.54-3.86a6.58,6.58,0,0,1,3.24.82l-.6,1.74a5.13,5.13,0,0,0-2.69-.76c-1.41,0-2.2.82-2.2,1.79s.79,1.58,2.5,2.23c2.28.87,3.45,2,3.45,4,0,2.31-1.8,3.94-4.92,3.94a7.5,7.5,0,0,1-3.7-.9Z"/><path class="cls-2" d="M275.71,82.24h2.39v8.21h.05a4.46,4.46,0,0,1,1.71-1.69,4.93,4.93,0,0,1,2.45-.68c1.77,0,4.6,1.09,4.6,5.63v7.83h-2.39V94c0-2.12-.79-3.92-3-3.92a3.44,3.44,0,0,0-3.21,2.39,2.89,2.89,0,0,0-.16,1.14v7.94h-2.39Z"/><path class="cls-2" d="M298.09,101.55l-.19-1.66h-.08a4.91,4.91,0,0,1-4,2,3.75,3.75,0,0,1-4-3.78c0-3.18,2.83-4.92,7.91-4.9v-.27a2.71,2.71,0,0,0-3-3,6.55,6.55,0,0,0-3.43,1l-.54-1.58A8.17,8.17,0,0,1,295,88.09c4,0,5,2.75,5,5.38V98.4a18.54,18.54,0,0,0,.22,3.16Zm-.35-6.72c-2.61-.06-5.58.41-5.58,3a2.12,2.12,0,0,0,2.26,2.28,3.27,3.27,0,0,0,3.18-2.2,2.51,2.51,0,0,0,.14-.76Z"/><path class="cls-2" d="M303.91,92.5c0-1.55,0-2.88-.11-4.11h2.09L306,91h.11a4,4,0,0,1,3.64-2.88,2.57,2.57,0,0,1,.68.08v2.26a3.7,3.7,0,0,0-.82-.08,3.36,3.36,0,0,0-3.21,3.07,6.65,6.65,0,0,0-.11,1.11v7h-2.37Z"/><path class="cls-2" d="M313.87,95.41c.05,3.24,2.12,4.57,4.51,4.57a8.65,8.65,0,0,0,3.64-.68l.41,1.71a10.65,10.65,0,0,1-4.38.82c-4.05,0-6.47-2.66-6.47-6.63s2.34-7.1,6.17-7.1c4.3,0,5.44,3.78,5.44,6.2a9.2,9.2,0,0,1-.08,1.11Zm7-1.71c0-1.52-.63-3.89-3.32-3.89-2.42,0-3.48,2.23-3.67,3.89Z"/><path class="cls-2" d="M331.36,100.14A1.61,1.61,0,0,1,333,98.42a1.72,1.72,0,1,1-1.63,1.71Z"/><path class="cls-4" d="M344.66,95.41c.05,3.24,2.12,4.57,4.51,4.57a8.65,8.65,0,0,0,3.64-.68l.41,1.71a10.65,10.65,0,0,1-4.38.82c-4.05,0-6.47-2.66-6.47-6.63s2.34-7.1,6.17-7.1c4.3,0,5.44,3.78,5.44,6.2a9.2,9.2,0,0,1-.08,1.11Zm7-1.71c0-1.52-.63-3.89-3.32-3.89-2.42,0-3.48,2.23-3.67,3.89Z"/><path class="cls-4" d="M356.58,92c0-1.36,0-2.48-.11-3.56h2.12l.14,2.17h.05a4.84,4.84,0,0,1,4.35-2.47c1.82,0,4.65,1.09,4.65,5.6v7.86h-2.39V94c0-2.12-.79-3.89-3-3.89a3.4,3.4,0,0,0-3.21,2.45,3.44,3.44,0,0,0-.16,1.11v7.91h-2.39Z"/><path class="cls-4" d="M367.11,105.36a3.87,3.87,0,0,0,2.61-1c.65-.76.9-1.79.9-4.95v-11H373v11.94c0,2.56-.41,4.21-1.58,5.41a6.08,6.08,0,0,1-4.08,1.5Z"/><path class="cls-4" d="M404.35,88.35h-2.53l-2.61,7.72c-.33,1-.6,2-.84,2.75h-.06c-.22-.79-.54-1.82-.84-2.69l-2.88-7.78H392l4.87,12.13c.07.21.21.37,0,.68a12.84,12.84,0,0,1-5.86,4.6,10.24,10.24,0,0,1-13.33-5.61A7.94,7.94,0,0,1,382,89.81a6.1,6.1,0,0,1,8,3.35,4.64,4.64,0,0,1-2.55,6,3.47,3.47,0,0,1-4.52-1.9,1.21,1.21,0,0,0-2.25.92,5.89,5.89,0,0,0,7.69,3.23,7.06,7.06,0,0,0,3.88-9.21,8.53,8.53,0,0,0-11.12-4.68,10.37,10.37,0,0,0-5.68,13.51A12.65,12.65,0,0,0,391.9,108a16.05,16.05,0,0,0,6.92-5.63c0-.06,0,.06,0,0A14.7,14.7,0,0,0,401,97.69Z"/></g></g></svg>