<svg xmlns="http://www.w3.org/2000/svg" viewBox="0 0 199.21 168.57"><defs><style>.cls-1{fill:#f09700;}.cls-2{fill:#006983;}.cls-3{fill:#006580;}.cls-4{fill:#006690;}</style></defs><title>Fichier 2</title><g id="Calque_2" data-name="Calque 2"><g id="Calque_1-2" data-name="Calque 1"><g id="Calque_1-2-2" data-name="Calque 1-2"><path class="cls-1" d="M41.36,108.89v10.45a11,11,0,0,1,4.18-4.05A11.7,11.7,0,0,1,51.29,114a12.15,12.15,0,0,1,10.06,5.1q3.92,5.1,3.92,13.2t-3.92,13.2a11,11,0,0,1-5.29,3.59,20.81,20.81,0,0,1-6.6,1.11,21.92,21.92,0,0,1-11.63-3.27q-5.36-3.27-5.36-12.54V104.45h4.44a4.46,4.46,0,0,1,4.44,4.44Zm14.9,23q0-4.7-2-7.32a6.24,6.24,0,0,0-5.36-2.74,6.6,6.6,0,0,0-5.62,2.61,12.59,12.59,0,0,0-2,7.45q0,5.49,1.83,8a6.36,6.36,0,0,0,5.49,2.74,6.49,6.49,0,0,0,5.62-2.74Q56.26,137.12,56.26,131.89Z"/><path class="cls-1" d="M97.16,114.77v20.38q0,9.28-4.83,12.15a20.33,20.33,0,0,1-10.58,2.87A21,21,0,0,1,71.48,147q-4.64-2.87-4.64-11.89V114.77H76V137a5.46,5.46,0,0,0,1.83,4.57A6.58,6.58,0,0,0,82,143a6.85,6.85,0,0,0,4.25-1.44A5.37,5.37,0,0,0,88.14,137V119.22a4.39,4.39,0,0,1,1.24-3.14,4.22,4.22,0,0,1,3.2-1.31Z"/><path class="cls-1" d="M161.57,105.82a4.18,4.18,0,0,0-3.14-1.37H154v14.9a12.43,12.43,0,0,0-4.18-4.05A12.74,12.74,0,0,0,134,119.09a16.85,16.85,0,0,0-2.46,4.64V108.89a4.36,4.36,0,0,0-1.31-3.07,4.18,4.18,0,0,0-3.14-1.37h-4.44v14.9a12.43,12.43,0,0,0-4.18-4.05,12.74,12.74,0,0,0-15.81,3.79q-3.79,5-3.79,13.2t3.79,13.2a11,11,0,0,0,5.23,3.59,20.59,20.59,0,0,0,6.66,1.11,21.93,21.93,0,0,0,11.63-3.27c2.51-1.53,4.12-4.08,4.87-7.6a16.78,16.78,0,0,0,3,6.16,11,11,0,0,0,5.23,3.59,20.59,20.59,0,0,0,6.66,1.11,21.93,21.93,0,0,0,11.63-3.27q5.36-3.27,5.36-12.54V108.89A4.36,4.36,0,0,0,161.57,105.82Zm-40.75,34a6.36,6.36,0,0,1-5.49,2.74,6.49,6.49,0,0,1-5.62-2.74q-2-2.74-2-8,0-4.7,2-7.32a6.23,6.23,0,0,1,5.36-2.74,6.82,6.82,0,0,1,5.62,2.61,12.59,12.59,0,0,1,2,7.45q0,5.3-1.87,8Zm31.34,0a6.36,6.36,0,0,1-5.49,2.74,6.49,6.49,0,0,1-5.62-2.74q-2-2.74-2-8,0-4.7,2-7.32a6.23,6.23,0,0,1,5.36-2.74,6.82,6.82,0,0,1,5.62,2.61,12.59,12.59,0,0,1,2,7.45q0,5.3-1.87,8Z"/><path class="cls-1" d="M170.51,164.26v-8.17H173a6.28,6.28,0,0,0,4.12-1.24c1-.83,1.2-3.62.59-5.45l-12.2-34.63h10.06l7.06,24.57,6.14-21.43a3.86,3.86,0,0,1,4.18-3.14h6.27l-13.33,39.59c-1,2.87-2.49,6.8-3.92,8.18-2.28,2.18-4.14,1.74-7.71,1.74C174,164.29,171.44,164.29,170.51,164.26Z"/><path class="cls-2" d="M78.57,53.66H43.24v5.68a8.86,8.86,0,0,0,8.83,8.89H62.51Q61,76.88,55.59,81.82q-5.44,4.7-13.84,4.69-11.37,0-17.54-7.66-6.43-7.9-6.42-21.74,0-13.59,6.18-21.74,6.17-7.66,16.8-7.66,8.15,0,13.09,3.46a19.08,19.08,0,0,1,4.94,5.44,8.11,8.11,0,0,0,7.66,4.69H78.32A32.58,32.58,0,0,0,66.21,20Q55.84,12.4,40,12.4q-18.29,0-29.4,12.35Q0,36.61,0,57.11,0,77.87,10.87,89.73q10.45,11.91,28.31,12.09H40.3q1.29,0,2.54-.12l1-.08Q58.67,100.24,68,90,78.55,77.91,78.55,57.4c0-1.18,0-2.33-.08-3.47Z"/><circle class="cls-3" cx="125.82" cy="67.44" r="1.91"/><circle class="cls-3" cx="131.77" cy="67.44" r="1.91"/><path class="cls-2" d="M166,30.38a12.23,12.23,0,0,0-2.39.24,40.24,40.24,0,0,0-5.1-7.09A39.34,39.34,0,0,0,144,14c4.53-3.28,8.63-6.1,8.63-6.1-3.58-.8-12.77,2-17.89,3.81-.93-.13-1.88-.22-2.85-.29,2.47-3.91,10-11.43,10-11.43-11.29,2.66-17.51,7.85-20.72,11.68A39,39,0,0,0,97.09,23.52,38.69,38.69,0,0,0,92,30.76a12.24,12.24,0,1,0-6.33,23.65l.5.12v2.2q0,21,11,33,11.24,12,30.71,12,19.22,0,30.71-12,11.24-12.23,11.24-33V54.3A12.27,12.27,0,0,0,166,30.38ZM82.33,46.27v0a6.73,6.73,0,1,1,10.92-7.77,19.36,19.36,0,0,0-4.55,10A6.71,6.71,0,0,1,82.33,46.27ZM147,72a19.47,19.47,0,1,1-38.53,0,19.45,19.45,0,1,1,19.31-30.72A19.46,19.46,0,1,1,147,72Zm26.94-28.48A6.73,6.73,0,0,1,166.16,49a19.36,19.36,0,0,0-4.75-10,6.71,6.71,0,0,1,5.83-3.38v0a6.73,6.73,0,0,1,6.7,7.88Z"/><path class="cls-3" d="M142.56,74.28s3.38,14.41-13.13,17.5C129.43,91.78,138.9,88.59,142.56,74.28Z"/><path class="cls-1" d="M34.7,162.55a3.83,3.83,0,0,0,1.93.58c1.06,0,1.56-.53,1.56-1.2s-.42-1.08-1.5-1.48c-1.45-.52-2.13-1.31-2.13-2.28a2.48,2.48,0,0,1,2.58-2.38l.2,0a4,4,0,0,1,2,.5L39,157.38a3.13,3.13,0,0,0-1.65-.46c-.86,0-1.35.5-1.35,1.1s.48,1,1.53,1.36c1.4.53,2.11,1.23,2.11,2.43,0,1.41-1.1,2.41-3,2.41a4.58,4.58,0,0,1-2.26-.55Z"/><path class="cls-1" d="M41.48,158.62c0-1,0-1.86-.07-2.63h1.31l.07,1.38h0a3.16,3.16,0,0,1,2.86-1.56c1.94,0,3.41,1.65,3.41,4.09,0,2.89-1.76,4.32-3.66,4.32A2.82,2.82,0,0,1,43,163h0v4.37H41.48Zm1.45,2.14a3.26,3.26,0,0,0,.07.6,2.26,2.26,0,0,0,2.19,1.71c1.54,0,2.44-1.26,2.44-3.11,0-1.61-.85-3-2.39-3A2.33,2.33,0,0,0,43,158.79a2.38,2.38,0,0,0-.1.6Z"/><path class="cls-1" d="M58.22,159.95a3.93,3.93,0,0,1-3.57,4.26h-.43a3.82,3.82,0,0,1-3.87-3.77q0-.19,0-.37a3.93,3.93,0,0,1,3.57-4.26h.43a3.81,3.81,0,0,1,3.86,4.14Zm-6.38.08c0,1.76,1,3.09,2.44,3.09s2.44-1.31,2.44-3.12c0-1.36-.68-3.09-2.41-3.09s-2.48,1.6-2.48,3.1Z"/><path class="cls-1" d="M60.06,158.51c0-.95,0-1.76-.07-2.51h1.28v1.58h.07a2.41,2.41,0,0,1,2.23-1.76,1.57,1.57,0,0,1,.42,0v1.38a2.26,2.26,0,0,0-.5,0,2,2,0,0,0-2,1.88,4.07,4.07,0,0,0-.07.68V164H60.06Z"/><path class="cls-1" d="M67.66,153.69V156h2.09v1.11H67.66v4.34c0,1,.28,1.56,1.1,1.56a3.25,3.25,0,0,0,.85-.1l.07,1.1a3.56,3.56,0,0,1-1.3.2,2,2,0,0,1-1.58-.61,3,3,0,0,1-.56-2.09v-4.41H65V156h1.25v-1.93Z"/><path class="cls-1" d="M74.57,163.18a1,1,0,1,1,1,1A1,1,0,0,1,74.57,163.18Z"/><path class="cls-1" d="M81.69,162.55a3.83,3.83,0,0,0,1.93.58c1.06,0,1.56-.53,1.56-1.2s-.42-1.08-1.5-1.48c-1.45-.52-2.13-1.31-2.13-2.28a2.48,2.48,0,0,1,2.58-2.38l.2,0a4,4,0,0,1,2,.5L86,157.37a3.13,3.13,0,0,0-1.65-.46c-.86,0-1.35.5-1.35,1.1s.48,1,1.53,1.36c1.4.53,2.11,1.23,2.11,2.43,0,1.41-1.1,2.41-3,2.41a4.58,4.58,0,0,1-2.26-.55Z"/><path class="cls-1" d="M88.47,152.24h1.46v5h0a2.72,2.72,0,0,1,1-1,3,3,0,0,1,1.5-.41c1.08,0,2.81.67,2.81,3.44V164H93.85v-4.62c0-1.3-.48-2.39-1.86-2.39a2.1,2.1,0,0,0-2,1.46,1.77,1.77,0,0,0-.1.7V164H88.47Z"/><path class="cls-1" d="M102.15,164l-.12-1h0a3,3,0,0,1-2.46,1.2,2.29,2.29,0,0,1-2.45-2.11q0-.1,0-.2c0-1.94,1.73-3,4.84-3v-.17a1.66,1.66,0,0,0-1.83-1.86,4,4,0,0,0-2.09.6l-.33-1a5,5,0,0,1,2.64-.71c2.46,0,3.06,1.68,3.06,3.29v3a11.33,11.33,0,0,0,.13,1.93Zm-.22-4.1c-1.6,0-3.41.25-3.41,1.81a1.29,1.29,0,0,0,1.18,1.39h.2a2,2,0,0,0,1.94-1.34,1.53,1.53,0,0,0,.08-.47Z"/><path class="cls-1" d="M105.71,158.51c0-.95,0-1.76-.07-2.51h1.28v1.58H107a2.41,2.41,0,0,1,2.23-1.76,1.57,1.57,0,0,1,.42,0v1.38a2.26,2.26,0,0,0-.5,0,2.05,2.05,0,0,0-2,1.88,4.07,4.07,0,0,0-.07.68V164h-1.45Z"/><path class="cls-1" d="M111.79,160.29a2.58,2.58,0,0,0,2.76,2.79,5.28,5.28,0,0,0,2.23-.42l.25,1a6.51,6.51,0,0,1-2.68.5,3.73,3.73,0,0,1-4-4.05c0-2.43,1.43-4.34,3.77-4.34,2.63,0,3.32,2.31,3.32,3.79a5.62,5.62,0,0,1,0,.68Zm4.29-1a2.08,2.08,0,0,0-1.76-2.36l-.24,0a2.42,2.42,0,0,0-2.24,2.38Z"/><path class="cls-1" d="M122.48,163.18a1,1,0,1,1,1,1A1,1,0,0,1,122.48,163.18Z"/><path class="cls-4" d="M130.6,160.29a2.58,2.58,0,0,0,2.76,2.79,5.28,5.28,0,0,0,2.23-.42l.25,1a6.51,6.51,0,0,1-2.68.5,3.73,3.73,0,0,1-4-4.05c0-2.43,1.43-4.34,3.77-4.34,2.63,0,3.32,2.31,3.32,3.79a5.62,5.62,0,0,1,0,.68Zm4.29-1a2.08,2.08,0,0,0-1.76-2.36l-.24,0a2.42,2.42,0,0,0-2.24,2.38Z"/><path class="cls-4" d="M137.89,158.18a21.07,21.07,0,0,0-.07-2.18h1.3l.08,1.33h0a3,3,0,0,1,2.66-1.51c1.11,0,2.84.67,2.84,3.42V164h-1.46v-4.6c0-1.3-.48-2.38-1.86-2.38a2.15,2.15,0,0,0-2.1,2.18V164h-1.46Z"/><path class="cls-4" d="M144.32,166.37a2.36,2.36,0,0,0,1.6-.62c.4-.46.55-1.1.55-3V156h1.46v7.3a4.41,4.41,0,0,1-1,3.31,3.71,3.71,0,0,1-2.49.91Z"/><path class="cls-4" d="M167.08,156h-1.55l-1.6,4.72c-.2.58-.37,1.2-.52,1.68h0c-.13-.48-.33-1.11-.51-1.65L161.11,156h-1.6l3,7.41c0,.13.13.23,0,.41a7.85,7.85,0,0,1-3.58,2.81,6.26,6.26,0,0,1-8.14-3.43,4.85,4.85,0,0,1,2.66-6.32,3.73,3.73,0,0,1,4.86,2,2.83,2.83,0,0,1-1.55,3.69h0a2.12,2.12,0,0,1-2.76-1.16.74.74,0,1,0-1.37.56,3.6,3.6,0,0,0,4.68,2h0a4.32,4.32,0,0,0,2.37-5.63,5.21,5.21,0,0,0-6.79-2.86h0a6.34,6.34,0,0,0-3.47,8.25A7.73,7.73,0,0,0,159.47,168a9.81,9.81,0,0,0,4.23-3.44h0a9,9,0,0,0,1.31-2.86Z"/></g></g></g></svg>